<?xml version="1.0" encoding="UTF-8" standalone="no"?>
<svg
   viewBox="0 0 32 32"
   version="1.1"
   id="svg3"
   sodipodi:docname="cycles.svg"
   inkscape:version="1.3.2 (091e20e, 2023-11-25, custom)"
   xmlns:inkscape="http://www.inkscape.org/namespaces/inkscape"
   xmlns:sodipodi="http://sodipodi.sourceforge.net/DTD/sodipodi-0.dtd"
   xmlns="http://www.w3.org/2000/svg"
   xmlns:svg="http://www.w3.org/2000/svg">
  <sodipodi:namedview
     id="namedview3"
     pagecolor="#ffffff"
     bordercolor="#000000"
     borderopacity="0.25"
     inkscape:showpageshadow="2"
     inkscape:pageopacity="0.0"
     inkscape:pagecheckerboard="0"
     inkscape:deskcolor="#d1d1d1"
     showguides="false"
     inkscape:zoom="24.96875"
     inkscape:cx="16"
     inkscape:cy="15.118899"
     inkscape:window-width="1920"
     inkscape:window-height="1013"
     inkscape:window-x="-9"
     inkscape:window-y="-9"
     inkscape:window-maximized="1"
     inkscape:current-layer="svg3">
    <sodipodi:guide
       position="32.320401,32.2403"
       orientation="0.70710678,-0.70710678"
       id="guide3"
       inkscape:locked="false" />
    <sodipodi:guide
       position="33.882353,26.072591"
       orientation="0,-1"
       id="guide4"
       inkscape:locked="false" />
  </sodipodi:namedview>
  <defs
     id="defs1">
    <style
       id="style1">.cls-1{fill:none;}</style>
  </defs>
  <title
     id="title1" />
  <g
     data-name="Layer 2"
     id="Layer_2"
     transform="matrix(1.2260067,0,0,1.2266444,-3.5578695,-3.6249757)">
    <path
       d="M 17,28 A 1,1 0 0 1 17,26 10,10 0 1 0 8.82,21.75 1,1 0 0 1 8.58,23.14 1,1 0 0 1 7.18,22.9 12,12 0 1 1 17,28 Z"
       id="path1" />
    <path
       d="M 9,24 H 4 a 1,1 0 0 1 0,-2 h 4 v -4 a 1,1 0 0 1 2,0 v 5 a 1,1 0 0 1 -1,1 z"
       id="path2" />
    <path
       d="m 14,20 a 1,1 0 0 1 -0.71,-0.29 1,1 0 0 1 0,-1.42 L 16,15.59 V 11 a 1,1 0 0 1 2,0 v 5 a 1,1 0 0 1 -0.29,0.71 l -3,3 A 1,1 0 0 1 14,20 Z"
       id="path3" />
  </g>
  <g
     id="frame"
     transform="matrix(0.99999996,0,0,0.99874844,0,0.04005006)">
    <rect
       class="cls-1"
       height="32"
       width="32"
       id="rect3"
       x="0"
       y="0" />
  </g>
</svg>
