<?xml version="1.0" encoding="UTF-8" standalone="no"?>
<svg
   version="1.0"
   width="512.000000pt"
   height="512.000000pt"
   viewBox="0 0 512.000000 512.000000"
   preserveAspectRatio="xMidYMid meet"
   id="svg3"
   sodipodi:docname="rest.svg"
   inkscape:version="1.3.2 (091e20e, 2023-11-25, custom)"
   xmlns:inkscape="http://www.inkscape.org/namespaces/inkscape"
   xmlns:sodipodi="http://sodipodi.sourceforge.net/DTD/sodipodi-0.dtd"
   xmlns="http://www.w3.org/2000/svg"
   xmlns:svg="http://www.w3.org/2000/svg">
  <defs
     id="defs3" />
  <sodipodi:namedview
     id="namedview3"
     pagecolor="#ffffff"
     bordercolor="#000000"
     borderopacity="0.25"
     inkscape:showpageshadow="2"
     inkscape:pageopacity="0.0"
     inkscape:pagecheckerboard="0"
     inkscape:deskcolor="#d1d1d1"
     inkscape:document-units="pt"
     inkscape:zoom="1.1704102"
     inkscape:cx="341.33333"
     inkscape:cy="341.33333"
     inkscape:window-width="1920"
     inkscape:window-height="1013"
     inkscape:window-x="-9"
     inkscape:window-y="-9"
     inkscape:window-maximized="1"
     inkscape:current-layer="g3" />
  <g
     transform="translate(0.000000,512.000000) scale(0.100000,-0.100000)"
     fill="#000000"
     stroke="none"
     id="g3">
    <path
       d="M 2347.6983,5104.8534 C 1181.9835,4995.47 252.74526,4144.3628 45.437618,2998.4411 -69.154545,2362.9755 72.523038,1684.7983 431.92573,1143.0899 985.09336,309.69229 1954.9598,-122.63269 2943.5776,22.170137 3728.0131,137.80404 4414.5243,612.84064 4805.1794,1311.8528 c 194.8066,347.9435 312.5241,777.1432 316.6911,1158.4227 2.0834,136.4688 1.0417,141.6775 -26.0437,189.5979 -22.9184,37.5029 -42.7117,55.2126 -86.465,77.0892 -73.9641,35.4195 -142.7194,32.2942 -206.2659,-12.501 -68.7553,-47.9203 -86.465,-93.7572 -94.799,-251.0609 -21.8767,-408.3648 -135.4271,-765.684 -347.9435,-1091.7508 C 4246.803,1206.6364 4067.6225,1009.7462 3899.9012,875.36087 3618.6296,649.30179 3251.9347,490.95625 2874.8223,431.57668 c -157.3037,-23.96018 -459.4104,-23.96018 -616.7142,0 C 1642.4356,527.4174 1103.8526,872.23564 772.57699,1381.6499 357.9617,2018.1573 310.04134,2825.5112 645.48385,3500.5632 999.67781,4213.1181 1677.8551,4652.7352 2485.209,4695.4469 c 158.3455,8.334 204.1823,26.0436 252.1027,94.799 44.7952,63.5465 47.9204,132.3018 12.501,206.2659 -41.6699,83.3397 -94.799,112.5086 -213.5582,115.6339 -48.9621,1.0417 -134.3853,-2.0835 -188.5562,-7.2923 z"
       id="path1"
       style="stroke-width:1.04174" />
    <path
       d="m 3263.3939,4741.2838 c -170.8464,-90.632 -136.4689,-340.6513 53.1291,-384.4046 27.0854,-6.2506 195.8485,-11.4592 401.0726,-11.4592 h 354.1939 L 3621.7549,3895.3852 C 3220.6823,3493.271 3170.6784,3439.1001 3160.261,3398.472 c -25.002,-94.799 19.7931,-191.6815 108.3416,-235.4348 l 52.0874,-26.0437 h 641.7161 c 667.7598,0 681.3025,1.0417 740.682,44.7951 33.336,23.9601 67.7137,83.3398 77.0893,133.3437 15.6263,82.2979 -40.6281,181.2639 -125.0096,218.7668 -37.5029,17.7096 -76.0475,19.7932 -416.6988,19.7932 h -373.9871 l 448.9929,451.0764 c 434.4085,436.4919 448.993,452.1181 460.4522,503.1638 22.9184,95.8406 -19.7932,190.6396 -103.133,233.3513 -39.5864,19.7932 -61.4631,20.8349 -705.2627,20.8349 -634.4238,-1.0417 -666.718,-2.0835 -702.1374,-20.8349 z"
       id="path2"
       style="stroke-width:1.04174" />
    <path
       d="m 2472.708,4134.987 c -27.0855,-14.5844 -59.3796,-42.7116 -78.131,-68.7553 l -31.2525,-45.8369 -3.1252,-787.5606 c -2.0835,-684.4277 -1.0417,-793.8112 13.5427,-830.2724 11.4592,-32.2941 132.3018,-158.3455 517.7483,-543.7918 452.1181,-451.0764 507.3307,-503.1638 549.0006,-513.5812 84.3814,-21.8768 180.2222,13.5427 227.1008,84.3814 36.4611,55.2127 44.7951,145.8446 18.7515,197.932 -9.3758,19.7932 -218.7668,237.5182 -464.6192,483.3705 l -446.9094,447.9512 -2.0835,731.3064 -3.1252,730.2645 -31.2525,45.8369 c -38.5446,55.2127 -106.2581,91.6738 -171.8882,91.6738 -29.1689,0 -65.63,-9.3757 -93.7572,-22.9185 z"
       id="path3"
       style="stroke-width:1.04174" />
  </g>
</svg>
