<?xml version="1.0" standalone="no"?>
<!DOCTYPE svg PUBLIC "-//W3C//DTD SVG 20010904//EN"
 "http://www.w3.org/TR/2001/REC-SVG-20010904/DTD/svg10.dtd">
<svg version="1.0" xmlns="http://www.w3.org/2000/svg"
 width="512.000000pt" height="512.000000pt" viewBox="0 0 512.000000 512.000000"
 preserveAspectRatio="xMidYMid meet">

<g transform="translate(0.000000,512.000000) scale(0.100000,-0.100000)"
fill="#000000" stroke="none">
<path d="M2370 4854 c-543 -50 -1049 -285 -1433 -667 -349 -347 -569 -782
-654 -1292 -25 -153 -25 -514 1 -670 22 -138 65 -313 106 -430 42 -123 165
-370 240 -485 328 -501 826 -850 1410 -991 169 -40 299 -53 520 -53 387 0 667
63 1005 228 465 228 830 590 1055 1049 113 230 178 435 217 687 24 160 24 500
0 660 -39 253 -101 449 -212 677 -229 467 -591 829 -1058 1058 -323 158 -595
223 -957 229 -107 2 -215 2 -240 0z m390 -324 c381 -40 756 -195 1050 -435 95
-77 266 -257 339 -355 473 -637 520 -1511 117 -2183 -88 -146 -163 -244 -281
-366 -174 -180 -347 -307 -559 -410 -667 -326 -1455 -250 -2055 197 -105 78
-324 299 -404 407 -183 249 -305 536 -363 860 -25 141 -25 489 0 630 58 324
180 612 363 860 81 110 300 330 406 409 402 298 899 436 1387 386z"/>
<path d="M2495 3706 c-37 -17 -70 -52 -84 -89 -7 -19 -11 -227 -11 -626 l0
-598 23 -43 c21 -39 52 -61 422 -287 220 -134 411 -249 425 -255 103 -43 220
36 220 149 -1 86 -14 97 -407 337 l-362 221 -3 552 c-3 539 -3 552 -24 579
-11 15 -32 37 -46 47 -34 25 -113 32 -153 13z"/>
</g>
</svg>
