<?xml version="1.0" encoding="UTF-8" standalone="no"?>
<svg
   version="1.0"
   width="512.000000pt"
   height="512.000000pt"
   viewBox="0 0 512.000000 512.000000"
   preserveAspectRatio="xMidYMid meet"
   id="svg2"
   sodipodi:docname="timer.svg"
   inkscape:version="1.3.2 (091e20e, 2023-11-25, custom)"
   xmlns:inkscape="http://www.inkscape.org/namespaces/inkscape"
   xmlns:sodipodi="http://sodipodi.sourceforge.net/DTD/sodipodi-0.dtd"
   xmlns="http://www.w3.org/2000/svg"
   xmlns:svg="http://www.w3.org/2000/svg">
  <defs
     id="defs2" />
  <sodipodi:namedview
     id="namedview2"
     pagecolor="#ffffff"
     bordercolor="#000000"
     borderopacity="0.25"
     inkscape:showpageshadow="2"
     inkscape:pageopacity="0.0"
     inkscape:pagecheckerboard="0"
     inkscape:deskcolor="#d1d1d1"
     inkscape:document-units="pt"
     showguides="false"
     inkscape:zoom="1.1704102"
     inkscape:cx="341.33333"
     inkscape:cy="136.27701"
     inkscape:window-width="1920"
     inkscape:window-height="1013"
     inkscape:window-x="-9"
     inkscape:window-y="-9"
     inkscape:window-maximized="1"
     inkscape:current-layer="svg2" />
  <g
     transform="matrix(0.11172548,0,0,-0.11172835,-29.537218,542.49703)"
     fill="#000000"
     stroke="none"
     id="g2">
    <path
       d="M 2370,4854 C 1827,4804 1321,4569 937,4187 588,3840 368,3405 283,2895 c -25,-153 -25,-514 1,-670 22,-138 65,-313 106,-430 42,-123 165,-370 240,-485 328,-501 826,-850 1410,-991 169,-40 299,-53 520,-53 387,0 667,63 1005,228 465,228 830,590 1055,1049 113,230 178,435 217,687 24,160 24,500 0,660 -39,253 -101,449 -212,677 -229,467 -591,829 -1058,1058 -323,158 -595,223 -957,229 -107,2 -215,2 -240,0 z m 390,-324 c 381,-40 756,-195 1050,-435 95,-77 266,-257 339,-355 473,-637 520,-1511 117,-2183 -88,-146 -163,-244 -281,-366 C 3811,1011 3638,884 3426,781 2759,455 1971,531 1371,978 c -105,78 -324,299 -404,407 -183,249 -305,536 -363,860 -25,141 -25,489 0,630 58,324 180,612 363,860 81,110 300,330 406,409 402,298 899,436 1387,386 z"
       id="path1" />
    <path
       d="m 2495,3706 c -37,-17 -70,-52 -84,-89 -7,-19 -11,-227 -11,-626 v -598 l 23,-43 c 21,-39 52,-61 422,-287 220,-134 411,-249 425,-255 103,-43 220,36 220,149 -1,86 -14,97 -407,337 l -362,221 -3,552 c -3,539 -3,552 -24,579 -11,15 -32,37 -46,47 -34,25 -113,32 -153,13 z"
       id="path2" />
  </g>
</svg>
