<svg width="46" height="26" viewBox="0 0 46 26" fill="none" xmlns="http://www.w3.org/2000/svg">
<g clip-path="url(#clip0_7_121)">
<path fill-rule="evenodd" clip-rule="evenodd" d="M5.00505 0H46V22.1726H43.1025L43.3047 5.90345V5.71008C43.3047 5.01979 43.0236 4.35772 42.5232 3.86927C42.0227 3.38083 41.3438 3.10593 40.6356 3.10497H4.99756V0H5.00505ZM0 5.2613H40.995V26H0V5.2613Z" fill="#427D2A"/>
<path fill-rule="evenodd" clip-rule="evenodd" d="M34.3353 8.48303C34.3511 9.2561 34.6705 9.99381 35.2276 10.5443C35.7847 11.0948 36.5372 11.4161 37.3301 11.4421V19.6478C36.9056 19.6482 36.4856 19.7312 36.0946 19.892C35.7035 20.0528 35.3494 20.2881 35.053 20.5842C34.7565 20.8802 34.5238 21.231 34.3684 21.6159C34.213 22.0009 34.1381 22.4122 34.1481 22.8257H6.89549C6.90782 22.0271 6.59902 21.2555 6.03516 20.6759C5.47129 20.0963 4.69712 19.7548 3.87823 19.7244V11.5187C4.71393 11.5274 5.51906 11.2128 6.117 10.6437C6.71493 10.0746 7.05683 9.29752 7.06769 8.48303H34.3353Z" fill="#87CC71"/>
<path fill-rule="evenodd" clip-rule="evenodd" d="M15.0788 12.8358C15.6622 11.7683 16.5573 10.8934 17.6509 10.3217C18.7445 9.75007 19.9874 9.50733 21.2226 9.6242C22.4577 9.74108 23.6296 10.2123 24.5899 10.9784C25.5503 11.7444 26.256 12.7708 26.6178 13.9277C26.9796 15.0847 26.9813 16.3202 26.6226 17.4781C26.2639 18.636 25.561 19.6642 24.6028 20.4327C23.6445 21.2012 22.4739 21.6755 21.2391 21.7955C20.0043 21.9156 18.7607 21.6761 17.6655 21.1072C16.9382 20.7299 16.2942 20.2167 15.7705 19.5967C15.2468 18.9767 14.8536 18.2622 14.6133 17.494C14.3731 16.7259 14.2905 15.9191 14.3704 15.1198C14.4503 14.3205 14.691 13.5444 15.0788 12.8358Z" fill="#427D2A"/>
<path d="M20.6715 20.206C20.5946 20.207 20.5182 20.1929 20.4469 20.1647C20.3756 20.1364 20.3108 20.0945 20.2564 20.0415C20.2019 19.9884 20.1589 19.9253 20.13 19.8558C20.101 19.7863 20.0865 19.7118 20.0876 19.6368V19.0822C19.7495 19.0636 19.4151 19.0048 19.0918 18.9071C18.842 18.8262 18.5991 18.7262 18.3655 18.6079C18.2857 18.5744 18.2143 18.5244 18.1561 18.4614C18.098 18.3984 18.0545 18.324 18.0286 18.2431C17.9842 18.0903 17.9921 17.9276 18.0511 17.7797C18.1095 17.6384 18.2205 17.5237 18.3618 17.4586C18.4456 17.4269 18.5358 17.4144 18.6253 17.422C18.7149 17.4296 18.8015 17.4571 18.8784 17.5024C19.0862 17.6049 19.3029 17.6892 19.526 17.7541C19.8571 17.8455 20.2002 17.8885 20.5443 17.8818C20.8744 17.9099 21.2054 17.8372 21.4914 17.6739C21.5787 17.6154 21.65 17.5369 21.6989 17.4453C21.7479 17.3537 21.773 17.2517 21.7721 17.1485C21.7737 17.0683 21.7571 16.9888 21.7234 16.9156C21.6898 16.8424 21.6399 16.7774 21.5775 16.7252C21.3721 16.5794 21.1329 16.4854 20.8812 16.4516L19.818 16.2254C18.6426 15.9821 18.0548 15.374 18.0548 14.4011C18.0499 14.1525 18.0964 13.9054 18.1915 13.6747C18.2867 13.444 18.4287 13.2344 18.6089 13.0584C19.0114 12.6781 19.5309 12.4372 20.0876 12.3724V11.7814C20.0863 11.7072 20.1002 11.6334 20.1284 11.5645C20.1567 11.4956 20.1988 11.4329 20.2523 11.38C20.3069 11.3262 20.3724 11.2839 20.4445 11.2556C20.5166 11.2274 20.5939 11.2138 20.6715 11.2158C20.747 11.2141 20.8219 11.2278 20.8916 11.2561C20.9612 11.2844 21.024 11.3266 21.0758 11.38C21.1293 11.4329 21.1714 11.4956 21.1997 11.5645C21.2279 11.6334 21.2418 11.7072 21.2405 11.7814V12.3469C21.495 12.3796 21.7457 12.4358 21.9892 12.5147C22.2281 12.5905 22.455 12.6986 22.6631 12.8358C22.733 12.8751 22.7942 12.9276 22.8431 12.9903C22.8919 13.0529 22.9275 13.1245 22.9476 13.2007C22.9818 13.3415 22.966 13.4894 22.9027 13.6203C22.8724 13.6849 22.8289 13.7429 22.7748 13.7906C22.7207 13.8382 22.6572 13.8746 22.5882 13.8976C22.5001 13.9224 22.4077 13.9291 22.3168 13.9172C22.2259 13.9053 22.1386 13.875 22.0604 13.8282C21.8782 13.7409 21.6876 13.6712 21.4914 13.6203C21.2467 13.5599 20.9949 13.5317 20.7427 13.5363C20.4321 13.518 20.1238 13.5973 19.8629 13.7626C19.764 13.8261 19.683 13.9129 19.6274 14.0149C19.5718 14.1169 19.5434 14.2308 19.5447 14.3463C19.5425 14.4254 19.5581 14.5039 19.5905 14.5764C19.6228 14.6489 19.6711 14.7136 19.7319 14.7659C19.9278 14.9056 20.1549 14.9981 20.3945 15.0359L21.4689 15.2621C21.9784 15.3419 22.4525 15.5666 22.8315 15.9079C22.9785 16.0613 23.0928 16.2415 23.168 16.4381C23.2431 16.6347 23.2776 16.8439 23.2695 17.0536C23.2777 17.2994 23.2326 17.544 23.1371 17.7716C23.0416 17.9992 22.898 18.2046 22.7155 18.3744C22.3126 18.7348 21.8078 18.9687 21.2668 19.0457V19.6368C21.2683 19.7111 21.2545 19.7848 21.2262 19.8538C21.1979 19.9227 21.1557 19.9854 21.102 20.0382C21.0504 20.0921 20.9877 20.1348 20.9181 20.1637C20.8485 20.1926 20.7734 20.207 20.6977 20.206H20.6715Z" fill="white"/>
</g>
<defs>
<clipPath id="clip0_7_121">
<rect width="46" height="26" fill="white"/>
</clipPath>
</defs>
</svg>
