<svg width="48" height="48" viewBox="0 0 48 48" fill="none" xmlns="http://www.w3.org/2000/svg">
<g clip-path="url(#clip0_2_28)">
<path d="M24 0C19.2533 0 14.6131 1.40758 10.6663 4.04473C6.71954 6.68188 3.6434 10.4302 1.8269 14.8156C0.0103988 19.201 -0.464881 24.0266 0.461164 28.6822C1.38721 33.3377 3.67299 37.6141 7.02945 40.9706C10.3859 44.327 14.6623 46.6128 19.3178 47.5388C23.9734 48.4649 28.799 47.9896 33.1844 46.1731C37.5698 44.3566 41.3181 41.2805 43.9553 37.3337C46.5924 33.3869 48 28.7467 48 24C47.9989 17.6352 45.4699 11.5313 40.9693 7.03071C36.4687 2.53008 30.3648 0.00114991 24 0ZM37.7143 34.9714C37.7122 35.6982 37.4225 36.3946 36.9086 36.9086C36.3946 37.4225 35.6982 37.7121 34.9714 37.7143H13.0286C12.3018 37.7121 11.6054 37.4225 11.0914 36.9086C10.5775 36.3946 10.2879 35.6982 10.2857 34.9714V13.0286C10.2878 12.3018 10.5775 11.6053 11.0914 11.0914C11.6053 10.5775 12.3018 10.2878 13.0286 10.2857H34.9714C35.6982 10.2878 36.3947 10.5775 36.9086 11.0914C37.4225 11.6053 37.7122 12.3018 37.7143 13.0286V34.9714Z" fill="black"/>
<path d="M17.16 15.0857C16.8857 15.0731 16.6118 15.1176 16.3556 15.2163C16.0994 15.315 15.8665 15.4658 15.6715 15.6592C15.4766 15.8525 15.3238 16.0842 15.223 16.3396C15.1222 16.5949 15.0754 16.8685 15.0857 17.1428C15.0725 17.4136 15.1154 17.6841 15.212 17.9374C15.3085 18.1907 15.4564 18.4213 15.6465 18.6146C15.8365 18.8079 16.0646 18.9597 16.3162 19.0604C16.5679 19.1612 16.8377 19.2087 17.1086 19.2H17.1257C17.67 19.2025 18.1931 18.9892 18.5804 18.6068C18.9678 18.2245 19.1878 17.7042 19.1924 17.1599C19.1969 16.6157 18.9856 16.0918 18.6046 15.703C18.2237 15.3142 17.7043 15.0923 17.16 15.0857Z" fill="black"/>
<path d="M28.3028 20.5715C27.5758 20.5411 26.8544 20.7103 26.2167 21.0609C25.5791 21.4114 25.0496 21.9299 24.6857 22.56V20.5715H20.5714V32.9143H24.6857V25.4229C24.7193 24.9275 24.9473 24.4654 25.32 24.1372C25.768 23.8051 26.3265 23.6578 26.88 23.7258C27.2818 23.7316 27.6739 23.8504 28.0114 24.0686C28.3426 24.367 28.5967 24.7412 28.7519 25.1591C28.9071 25.577 28.9589 26.0263 28.9028 26.4686V32.9143H32.9143V26.0058C32.9143 22.2858 30.9428 20.5715 28.3028 20.5715Z" fill="black"/>
<path d="M19.2001 20.5714H15.0858V32.9143H19.2001V20.5714Z" fill="black"/>
</g>
<defs>
<clipPath id="clip0_2_28">
<rect width="48" height="48" fill="white"/>
</clipPath>
</defs>
</svg>
